<?xml version="1.0" encoding="UTF-8" standalone="no"?>
<!-- Created with Inkscape (http://www.inkscape.org/) -->
<svg
   xmlns:dc="http://purl.org/dc/elements/1.1/"
   xmlns:cc="http://web.resource.org/cc/"
   xmlns:rdf="http://www.w3.org/1999/02/22-rdf-syntax-ns#"
   xmlns:svg="http://www.w3.org/2000/svg"
   xmlns="http://www.w3.org/2000/svg"
   xmlns:sodipodi="http://inkscape.sourceforge.net/DTD/sodipodi-0.dtd"
   xmlns:inkscape="http://www.inkscape.org/namespaces/inkscape"
   id="svg2"
   sodipodi:version="0.32"
   inkscape:version="0.43"
   width="650pt"
   height="650pt"
   sodipodi:docbase="C:\Documents and Settings\Owner\Desktop\SVG"
   sodipodi:docname="Cloverleaf_interchange.svg"
   version="1.0">
  <metadata
     id="metadata7">
    <rdf:RDF>
      <cc:Work
         rdf:about="">
        <dc:format>image/svg+xml</dc:format>
        <dc:type
           rdf:resource="http://purl.org/dc/dcmitype/StillImage" />
      </cc:Work>
    </rdf:RDF>
  </metadata>
  <defs
     id="defs5" />
  <sodipodi:namedview
     inkscape:window-height="543"
     inkscape:window-width="756"
     inkscape:pageshadow="2"
     inkscape:pageopacity="0.0"
     borderopacity="1.0"
     bordercolor="#666666"
     pagecolor="#ffffff"
     id="base"
     inkscape:zoom="0.53270175"
     inkscape:cx="535.58461"
     inkscape:cy="168.00332"
     inkscape:window-x="44"
     inkscape:window-y="66"
     inkscape:current-layer="svg2" />
  <path
     id="path3232"
     d="M 8.024091,806.35315 L 1.7203916,3.3189847 L 807.0544,3.0344546 L 809.43166,809.09406 L 8.024091,806.35315 z "
     style="fill:#c4cddb"
     sodipodi:nodetypes="ccccc" />
  <path
     id="path1310"
     d="M 384.06128,781.62717 C 384.05741,761.45801 383.84427,758.64305 381.78053,751.50561 C 371.32496,715.34496 338.41615,665.23177 286.16814,605.90808 C 264.52764,581.33691 217.62348,535.13374 191.56554,512.71934 C 134.8471,463.93153 83.266383,432.39442 51.065543,426.81586 C 47.765543,426.24416 36.402543,425.91195 25.814433,426.07762 L 6.5633227,426.37883 L 6.5644327,417.13692 L 6.5655427,407.895 L 185.81554,408.13692 L 365.06554,408.37883 L 365.35442,417.12539 L 365.64331,425.87195 L 223.85442,426.12539 C 98.599163,426.34928 82.065543,426.55374 82.065543,427.87883 C 82.065543,428.70383 83.640543,430.16563 85.565543,431.12728 C 88.846983,432.76654 97.698693,432.87582 227.31554,432.87728 L 365.56554,432.87883 L 365.56554,436.31101 L 365.56554,439.7432 L 329.81554,440.06606 L 294.06554,440.38892 L 286.73094,443.06309 C 267.6643,450.01471 253.85322,463.70238 246.79994,482.63728 C 243.45698,491.61163 242.61242,508.15633 244.98178,518.25449 C 250.21331,540.55108 269.6503,560.15109 291.67958,565.34394 C 299.21989,567.12138 313.30695,567.32941 320.76632,565.77348 C 338.28732,562.11883 355.76519,548.25452 364.12553,531.37883 C 370.82632,517.85299 370.64716,521.59452 370.34127,401.5694 L 370.06554,293.37883 L 367.84202,286.87883 C 361.38491,268.00287 346.85629,253.20908 327.80709,246.11323 C 318.83274,242.77027 302.28804,241.92571 292.18988,244.29507 C 274.26317,248.50128 258.17204,261.45544 250.1779,278.11682 C 244.9558,289.00071 243.56554,294.94285 243.56554,306.37883 C 243.56554,317.50838 244.95766,323.74138 249.5959,333.37883 C 256.15025,346.99762 266.08062,357.07323 279.25097,363.46763 C 291.17856,369.25866 296.06539,369.84198 332.81554,369.86147 L 365.56554,369.87883 L 365.56554,373.37883 L 365.56554,376.87883 L 227.31554,376.88038 C 97.698693,376.88184 88.846983,376.99112 85.565543,378.63038 C 83.640543,379.59203 82.065543,381.05383 82.065543,381.87883 C 82.065543,383.20392 98.599163,383.40838 223.85442,383.63227 L 365.64331,383.88571 L 365.35442,392.63227 L 365.06554,401.37883 L 185.81554,401.62074 L 6.5655427,401.86266 L 6.5644327,392.62074 L 6.5633227,383.37883 L 25.814433,383.68004 C 36.402543,383.84571 47.765543,383.5135 51.065543,382.9418 C 79.271753,378.05528 122.97386,352.96225 171.06554,314.03976 C 196.27029,293.64056 211.60291,279.7946 240.41837,251.41137 C 315.19864,177.75282 368.14713,105.40323 381.78053,58.252053 C 383.84427,51.114603 384.05741,48.299653 384.06128,28.130493 L 384.06554,5.8821527 L 393.31305,5.8804927 L 402.56056,5.8788327 L 402.56056,404.87883 L 402.56056,803.87883 L 393.31305,803.87717 L 384.06554,803.8755 L 384.06128,781.62717 z M 384.06554,404.87883 C 384.06554,144.91753 383.81545,80.462133 382.80546,80.125473 C 382.07938,79.883443 380.7114,81.543253 379.57742,84.042133 C 377.63342,88.326033 377.60946,92.232243 377.60946,404.87883 C 377.60946,717.52541 377.63342,721.43163 379.57742,725.71552 C 380.7114,728.21441 382.07938,729.87422 382.80546,729.63219 C 383.81545,729.29553 384.06554,664.84013 384.06554,404.87883 z M 370.56554,621.31981 C 370.56554,551.54108 370.37243,540.87883 369.10864,540.87883 C 368.30735,540.87883 365.10675,544.02872 361.99619,547.8786 C 348.22931,564.91759 329.29693,573.87883 307.06554,573.87883 C 275.46269,573.87883 250.34149,555.71517 239.32729,524.90131 C 236.48539,516.95067 235.77666,496.86932 238.00301,487.37883 C 241.5186,472.39258 251.38897,456.99629 263.5206,447.57524 C 266.84532,444.99336 269.56554,442.20545 269.56554,441.37987 C 269.56554,440.05758 259.97929,439.87883 189.06554,439.87883 C 119.32594,439.87883 108.56554,440.07309 108.56554,441.33215 C 108.56554,443.03982 109.68534,443.88651 123.60453,452.70322 C 157.85491,474.39812 202.13328,510.5025 238.72646,546.57312 C 291.96193,599.04838 326.91195,640.13347 354.67818,682.87883 C 366.42923,700.96924 368.17008,703.24127 369.60201,702.35629 C 370.20713,701.98231 370.56554,671.83837 370.56554,621.31981 z M 269.2866,368.21583 C 269.49978,367.57618 266.49986,364.48808 262.62011,361.35338 C 250.62064,351.65825 241.54008,337.35472 238.08776,322.71047 C 235.94543,313.623 236.13377,297.88697 238.49538,288.65314 C 244.50535,265.1544 261.2933,247.30849 285.54306,238.64058 C 293.4937,235.79868 313.57505,235.08995 323.06554,237.3163 C 337.96696,240.81199 352.86958,250.40624 363.15981,263.12883 C 365.71769,266.29133 368.43038,268.87883 369.18802,268.87883 C 370.34663,268.87883 370.56554,256.09554 370.56554,188.43785 C 370.56554,137.91929 370.20713,107.77535 369.60201,107.40137 C 368.17008,106.51639 366.42923,108.78842 354.67818,126.87883 C 303.0408,206.37317 200.96377,308.05349 123.60453,357.05444 C 109.6792,365.87504 108.56554,366.71752 108.56554,368.43146 C 108.56554,369.70048 119.01729,369.85736 188.73227,369.63478 C 248.58159,369.4437 268.99723,369.08408 269.2866,368.21583 z M 408.57052,404.87883 L 408.57052,5.8788327 L 417.81803,5.8804927 L 427.06554,5.8821527 L 427.0698,28.130493 C 427.07367,48.299653 427.28681,51.114603 429.35055,58.252053 C 443.03092,105.56568 495.90588,177.69469 571.69858,252.43528 C 646.97948,326.67107 718.99488,376.42376 760.60418,382.94285 C 764.20048,383.50629 775.56348,383.83488 785.85538,383.67306 L 804.56788,383.37883 L 804.56668,392.62074 L 804.56558,401.86266 L 625.31558,401.62074 L 446.06554,401.37883 L 445.77666,392.63227 L 445.48777,383.88571 L 587.27668,383.63227 C 712.53188,383.40838 729.06558,383.20392 729.06558,381.87883 C 729.06558,381.05383 727.49058,379.59203 725.56558,378.63038 C 722.28408,376.99112 713.43238,376.88184 583.81558,376.88038 L 445.56554,376.87883 L 445.56554,373.44665 L 445.56554,370.01446 L 481.31558,369.65359 C 514.86268,369.31496 517.46608,369.15836 523.56558,367.11225 C 542.40648,360.79194 557.22428,346.25157 564.32048,327.12038 C 567.37268,318.89199 568.45708,303.18202 566.63208,293.63288 C 565.97478,290.19315 563.39438,283.14153 560.89808,277.96262 C 555.04978,265.82988 545.81818,256.31415 533.86058,250.09316 C 522.63928,244.25517 514.69708,242.57175 501.06558,243.1419 C 483.99848,243.85575 471.10488,249.51308 459.17118,261.52385 C 451.94814,268.79349 447.41293,276.00223 443.74475,286.04423 L 441.06554,293.37883 L 441.06554,404.37883 L 441.06554,515.37883 L 443.45888,522.68461 C 449.60941,541.45943 464.30698,556.56055 483.32398,563.64443 C 492.29838,566.98739 508.84308,567.83195 518.94118,565.46259 C 527.60918,563.42878 539.50088,557.28243 546.32838,551.3072 C 556.16038,542.70245 564.08098,528.91315 566.62808,515.96652 C 568.46438,506.63274 567.37278,490.86603 564.32048,482.63728 C 557.28888,463.68039 542.23478,448.90814 523.56558,442.64541 C 517.46608,440.5993 514.86268,440.4427 481.31558,440.10407 L 445.56554,439.7432 L 445.56554,436.31101 L 445.56554,432.87883 L 583.81558,432.87728 C 713.43238,432.87582 722.28408,432.76654 725.56558,431.12728 C 727.49058,430.16563 729.06558,428.70383 729.06558,427.87883 C 729.06558,426.55374 712.53188,426.34928 587.27668,426.12539 L 445.48777,425.87195 L 445.77666,417.12539 L 446.06554,408.37883 L 625.31558,408.13692 L 804.56558,407.895 L 804.56668,417.13692 L 804.56788,426.37883 L 785.85538,426.0846 C 775.56348,425.92278 764.20048,426.25137 760.60418,426.81481 C 718.99218,433.33432 646.92848,483.12204 571.70498,557.32238 C 495.46838,632.52199 443.09822,703.95922 429.35055,751.50561 C 427.28681,758.64305 427.07367,761.45801 427.0698,781.62717 L 427.06554,803.8755 L 417.81803,803.87717 L 408.57052,803.87883 L 408.57052,404.87883 z M 431.59247,725.62883 C 433.48498,721.45954 433.52162,715.36864 433.52162,404.87883 C 433.52162,92.232243 433.49766,88.326033 431.55366,84.042133 C 430.41968,81.543263 429.0517,79.883443 428.32562,80.125463 C 427.31635,80.461883 427.01459,144.91894 426.80957,403.96216 C 426.66879,581.84133 426.76717,727.94133 427.02819,728.62883 C 427.93069,731.00591 429.67092,729.86209 431.59247,725.62883 z M 445.90318,699.12883 C 477.37228,649.25215 506.86628,612.82515 556.50928,562.52315 C 602.68258,515.73689 648.05488,477.70538 687.52658,452.70322 C 701.45188,443.88262 702.56558,443.04014 702.56558,441.3262 C 702.56558,440.05718 692.11378,439.9003 622.39878,440.12288 C 561.14808,440.31844 542.13778,440.66184 541.83238,441.57825 C 541.61248,442.23793 544.18278,444.91335 547.54398,447.52361 C 565.09898,461.15626 574.56558,480.88189 574.56558,503.82869 C 574.56558,516.40362 572.99488,523.32562 567.63328,534.37883 C 558.51598,553.17458 541.93548,566.79695 521.95608,571.90683 C 512.50048,574.32516 496.89488,574.51381 487.56558,572.32257 C 473.11628,568.92878 458.02896,559.11878 448.04978,546.62883 C 445.52301,543.46633 442.80538,540.87883 442.0106,540.87883 C 440.76251,540.87883 440.56554,551.82888 440.56554,621.21216 C 440.56554,665.3955 440.86554,701.8455 441.23221,702.21216 C 442.53405,703.51401 443.56633,702.8326 445.90318,699.12883 z M 702.56558,368.53382 C 702.56558,366.72802 700.72618,365.29331 689.56558,358.39361 C 651.47308,334.84423 603.03398,294.37682 556.50928,247.23451 C 506.83158,196.89726 477.49458,160.66111 445.86057,110.56443 C 444.53582,108.46651 442.91499,106.92901 442.25873,107.14777 C 440.52223,107.7266 440.52841,268.03312 442.26496,268.61197 C 442.92464,268.83186 445.60006,266.26164 448.21032,262.90036 C 457.55861,250.86245 473.03568,240.84781 487.56558,237.43509 C 496.05658,235.44076 513.39098,235.42801 521.10548,237.41042 C 553.04508,245.61808 574.56558,273.20832 574.56558,305.94877 C 574.56558,328.93589 565.38108,347.96064 547.31558,362.39459 C 541.64568,366.92464 540.91918,367.89911 542.23218,369.21216 C 542.59888,369.57883 578.82388,369.87883 622.73218,369.87883 C 688.93988,369.87883 702.56558,369.64927 702.56558,368.53382 z "
     style="fill:#cc2b28" />
  <path
     style="fill:none;fill-opacity:0.75;fill-rule:evenodd;stroke:#000000;stroke-width:1px;stroke-linecap:butt;stroke-linejoin:miter;stroke-opacity:1"
     d="M 233.54451,35.667613 C 232.88478,35.997478 232.22505,36.327343 233.54451,35.667613 z "
     id="path1312" />
  <path
     style="fill:none;fill-opacity:0.75;fill-rule:evenodd;stroke:#ffffff;stroke-width:1px;stroke-linecap:butt;stroke-linejoin:miter;stroke-opacity:1"
     d="M 392.24421,764.47331 L 392.16021,46.968852"
     id="path1314"
     sodipodi:nodetypes="cc" />
  <path
     style="fill:none;fill-opacity:0.75;fill-rule:evenodd;stroke:#ffffff;stroke-width:1px;stroke-linecap:butt;stroke-linejoin:miter;stroke-opacity:1"
     d="M 417.37771,764.43449 L 417.47765,46.783247"
     id="path1359"
     sodipodi:nodetypes="cc" />
  <path
     style="fill:none;fill-opacity:0.75;fill-rule:evenodd;stroke:#ffffff;stroke-width:1px;stroke-linecap:butt;stroke-linejoin:miter;stroke-opacity:1"
     d="M 47.275636,392.36038 L 365.61913,392.30709 M 444.69081,392.64384 L 764.43392,392.24032"
     id="path1361"
     sodipodi:nodetypes="cccc" />
  <path
     style="fill:none;fill-opacity:0.75;fill-rule:evenodd;stroke:#ffffff;stroke-width:1px;stroke-linecap:butt;stroke-linejoin:miter;stroke-opacity:1"
     d="M 47.275635,417.20149 L 365.61923,417.65365 M 444.34107,417.67868 L 764.08404,417.43131"
     id="path1363"
     sodipodi:nodetypes="cccc" />
</svg>
