<?xml version="1.0" encoding="UTF-8" standalone="no"?>
<!DOCTYPE svg PUBLIC "-//W3C//DTD SVG 1.0//EN" "http://www.w3.org/TR/2001/REC-SVG-20010904/DTD/svg10.dtd">
<!-- Created with Inkscape (http://www.inkscape.org/) -->
<svg xmlns:svg="http://www.w3.org/2000/svg" xmlns="http://www.w3.org/2000/svg" xmlns:xlink="http://www.w3.org/1999/xlink" version="1.0" width="1260" height="1260" id="svg5595">
  <defs id="defs5597"/>
  <g id="g5139">
    <g transform="translate(0.5003396,7.890832e-3)" id="g2836">
      <rect width="1260" height="1260" x="-0.50033963" y="-0.0078908317" id="background" style="fill:#7ed4a4;stroke:none"/>
      <g transform="translate(-12.183112,-19.72006)" id="g2647">
        <rect width="191.23785" height="162.33073" rx="15.6" ry="15.6" x="31.109169" y="38.340561" id="ab-schild" style="fill:#00599a;stroke:#ffffff;stroke-width:5"/>
        <path d="M 192.06002,162.74412 L 57.27697,78.545506 L 44.875624,86.051584 C 75.552638,104.97995 72.289126,132.0671 45.201976,151.97452 L 57.603322,160.45966 L 107.53506,128.8036 L 95.13371,120.64482 L 70.004666,136.63602 C 70.004666,136.63602 80.121554,119.9921 70.65737,102.36914 L 151.91882,153.60628 C 151.91882,153.60628 127.76883,147.07926 101.66073,153.60628 L 124.50532,139.24682 L 112.10397,131.08804 L 61.519536,162.74412 L 73.920882,170.57654 C 113.40938,149.03736 158.1195,157.19614 179.65868,170.57654 L 192.06002,162.74412 z" id="path2420" style="fill:#ffffff;stroke:none"/>
        <use transform="matrix(-0.9999988,1.5447904e-3,-1.5447904e-3,-0.9999988,254.08101,238.1691)" id="use3192" x="0" y="0" width="744.09448" height="1052.3622" xlink:href="#path2420"/>
      </g>
    </g>
    <path d="M 1250,595 L 630.00001,595" id="path3981" style="fill:none;fill-rule:evenodd;stroke:#ffffff;stroke-width:20;stroke-linecap:butt;stroke-linejoin:miter;stroke-miterlimit:4;stroke-dasharray:none;stroke-opacity:1"/>
    <g id="g4591">
      <path d="M 1250,615 L 630.00001,615" id="path3983" style="fill:none;fill-rule:evenodd;stroke:#ffffff;stroke-width:20;stroke-linecap:butt;stroke-linejoin:miter;stroke-miterlimit:4;stroke-dasharray:none;stroke-opacity:1"/>
    </g>
    <path d="M 1250,615 L 630.00001,615" id="path3985" style="fill:none;fill-rule:evenodd;stroke:#525252;stroke-width:16;stroke-linecap:butt;stroke-linejoin:miter;stroke-miterlimit:4;stroke-dasharray:none;stroke-opacity:1"/>
    <path d="M 1140,575 L 1170,575 C 1190,575 1200,595 1220,595" id="path3979" style="fill:none;fill-rule:evenodd;stroke:#ffffff;stroke-width:20;stroke-linecap:butt;stroke-linejoin:miter;stroke-miterlimit:4;stroke-dasharray:none;stroke-opacity:1"/>
    <path d="M 1250,595 L 630.00001,595" id="path3987" style="fill:none;fill-rule:evenodd;stroke:#525252;stroke-width:16;stroke-linecap:butt;stroke-linejoin:miter;stroke-miterlimit:4;stroke-dasharray:none;stroke-opacity:1"/>
    <path d="M 1140,685 L 1170,685.00001 C 1190,685.00001 1200,665.00001 1220,665.00001" id="path3997" style="fill:none;fill-rule:evenodd;stroke:#ffffff;stroke-width:20;stroke-linecap:butt;stroke-linejoin:miter;stroke-miterlimit:4;stroke-dasharray:none;stroke-opacity:1"/>
    <g id="g4637">
      <path d="M 1250,665.00001 L 630,665.00001" id="path3993" style="fill:none;fill-rule:evenodd;stroke:#ffffff;stroke-width:20;stroke-linecap:butt;stroke-linejoin:miter;stroke-miterlimit:4;stroke-dasharray:none;stroke-opacity:1"/>
      <path d="M 1250,645.00001 L 630,645.00001" id="path3995" style="fill:none;fill-rule:evenodd;stroke:#ffffff;stroke-width:20;stroke-linecap:butt;stroke-linejoin:miter;stroke-miterlimit:4;stroke-dasharray:none;stroke-opacity:1"/>
      <path d="M 1250,665.00001 L 630,665.00001" id="path3999" style="fill:none;fill-rule:evenodd;stroke:#525252;stroke-width:16;stroke-linecap:butt;stroke-linejoin:miter;stroke-miterlimit:4;stroke-dasharray:none;stroke-opacity:1"/>
      <path d="M 1250,645.00001 L 630,645.00001" id="path4001" style="fill:none;fill-rule:evenodd;stroke:#525252;stroke-width:16;stroke-linecap:butt;stroke-linejoin:miter;stroke-miterlimit:4;stroke-dasharray:none;stroke-opacity:1"/>
    </g>
    <path d="M 120,685 L 89.99999,685 C 69.99999,685 59.99999,665 39.99999,665" id="path4031" style="fill:none;fill-rule:evenodd;stroke:#ffffff;stroke-width:20;stroke-linecap:butt;stroke-linejoin:miter;stroke-miterlimit:4;stroke-dasharray:none;stroke-opacity:1"/>
    <g id="g4643">
      <path d="M 9.99999,665 L 629.99999,665" id="path4033" style="fill:none;fill-rule:evenodd;stroke:#ffffff;stroke-width:20;stroke-linecap:butt;stroke-linejoin:miter;stroke-miterlimit:4;stroke-dasharray:none;stroke-opacity:1"/>
      <path d="M 9.99999,645 L 629.99999,645" id="path4035" style="fill:none;fill-rule:evenodd;stroke:#ffffff;stroke-width:20;stroke-linecap:butt;stroke-linejoin:miter;stroke-miterlimit:4;stroke-dasharray:none;stroke-opacity:1"/>
      <path d="M 9.99999,645 L 629.99999,645" id="path4037" style="fill:none;fill-rule:evenodd;stroke:#525252;stroke-width:16;stroke-linecap:butt;stroke-linejoin:miter;stroke-miterlimit:4;stroke-dasharray:none;stroke-opacity:1"/>
      <path d="M 9.99999,665 L 629.99999,665" id="path4039" style="fill:none;fill-rule:evenodd;stroke:#525252;stroke-width:16;stroke-linecap:butt;stroke-linejoin:miter;stroke-miterlimit:4;stroke-dasharray:none;stroke-opacity:1"/>
    </g>
    <path d="M 120,575 L 90,574.99999 C 70,574.99999 60,594.99999 40,594.99999" id="path3605" style="fill:none;fill-rule:evenodd;stroke:#ffffff;stroke-width:20;stroke-linecap:butt;stroke-linejoin:miter;stroke-miterlimit:4;stroke-dasharray:none;stroke-opacity:1"/>
    <g id="g4649">
      <path d="M 10,594.99999 L 630,594.99999" id="path2741" style="fill:none;fill-rule:evenodd;stroke:#ffffff;stroke-width:20;stroke-linecap:butt;stroke-linejoin:miter;stroke-miterlimit:4;stroke-dasharray:none;stroke-opacity:1"/>
      <path d="M 10,614.99999 L 630,614.99999" id="path2745" style="fill:none;fill-rule:evenodd;stroke:#ffffff;stroke-width:20;stroke-linecap:butt;stroke-linejoin:miter;stroke-miterlimit:4;stroke-dasharray:none;stroke-opacity:1"/>
      <path d="M 10,594.99999 L 630,594.99999" id="path3937" style="fill:none;fill-rule:evenodd;stroke:#525252;stroke-width:16;stroke-linecap:butt;stroke-linejoin:miter;stroke-miterlimit:4;stroke-dasharray:none;stroke-opacity:1"/>
      <path d="M 10,614.99999 L 630,614.99999" id="path3939" style="fill:none;fill-rule:evenodd;stroke:#525252;stroke-width:16;stroke-linecap:butt;stroke-linejoin:miter;stroke-miterlimit:4;stroke-dasharray:none;stroke-opacity:1"/>
    </g>
    <path d="M 690,560 L 570,560 L 570,700 L 690,700" id="path4537" style="fill:#d61201;fill-opacity:1;stroke:none;stroke-width:1;stroke-linecap:butt;stroke-linejoin:miter;stroke-miterlimit:4;stroke-dashoffset:0;stroke-opacity:1"/>
    <path d="M 120,575 L 90,574.99999 C 70,574.99999 60,594.99999 40,594.99999" id="path3947" style="fill:none;fill-rule:evenodd;stroke:#525252;stroke-width:16;stroke-linecap:butt;stroke-linejoin:miter;stroke-miterlimit:4;stroke-dasharray:none;stroke-opacity:1"/>
    <path d="M 575,120 L 575,89.99999 C 575,69.99999 595,59.99999 595,39.99999" id="path3609" style="fill:none;fill-rule:evenodd;stroke:#ffffff;stroke-width:20;stroke-linecap:butt;stroke-linejoin:miter;stroke-miterlimit:4;stroke-dasharray:none;stroke-opacity:1"/>
    <path d="M 595,9.99999 L 595,629.99999" id="path3574" style="fill:none;fill-rule:evenodd;stroke:#ffffff;stroke-width:20;stroke-linecap:butt;stroke-linejoin:miter;stroke-miterlimit:4;stroke-dasharray:none;stroke-opacity:1"/>
    <path d="M 615,9.99999 L 615,629.99999" id="path3578" style="fill:none;fill-rule:evenodd;stroke:#ffffff;stroke-width:20;stroke-linecap:butt;stroke-linejoin:miter;stroke-miterlimit:4;stroke-dasharray:none;stroke-opacity:1"/>
    <path d="M 615,9.99999 L 615,629.99999" id="path3945" style="fill:none;fill-rule:evenodd;stroke:#525252;stroke-width:16;stroke-linecap:butt;stroke-linejoin:miter;stroke-miterlimit:4;stroke-dasharray:none;stroke-opacity:1"/>
    <path d="M 595,9.99999 L 595,629.99999" id="path3943" style="fill:none;fill-rule:evenodd;stroke:#525252;stroke-width:16;stroke-linecap:butt;stroke-linejoin:miter;stroke-miterlimit:4;stroke-dasharray:none;stroke-opacity:1"/>
    <path d="M 575,120 L 575,89.99999 C 575,69.99999 595,59.99999 595,39.99999" id="path3949" style="fill:none;fill-rule:evenodd;stroke:#525252;stroke-width:16;stroke-linecap:butt;stroke-linejoin:miter;stroke-miterlimit:4;stroke-dasharray:none;stroke-opacity:1"/>
    <path d="M 665.00001,10 L 665.00001,630" id="path3967" style="fill:none;fill-rule:evenodd;stroke:#ffffff;stroke-width:20;stroke-linecap:butt;stroke-linejoin:miter;stroke-miterlimit:4;stroke-dasharray:none;stroke-opacity:1"/>
    <path d="M 645.00001,10 L 645.00001,630" id="path3969" style="fill:none;fill-rule:evenodd;stroke:#ffffff;stroke-width:20;stroke-linecap:butt;stroke-linejoin:miter;stroke-miterlimit:4;stroke-dasharray:none;stroke-opacity:1"/>
    <path d="M 685,120 L 685.00001,90 C 685.00001,70 665.00001,60 665.00001,40" id="path3971" style="fill:none;fill-rule:evenodd;stroke:#ffffff;stroke-width:20;stroke-linecap:butt;stroke-linejoin:miter;stroke-miterlimit:4;stroke-dasharray:none;stroke-opacity:1"/>
    <path d="M 665.00001,10 L 665.00001,630" id="path3973" style="fill:none;fill-rule:evenodd;stroke:#525252;stroke-width:16;stroke-linecap:butt;stroke-linejoin:miter;stroke-miterlimit:4;stroke-dasharray:none;stroke-opacity:1"/>
    <path d="M 645.00001,10 L 645.00001,630" id="path3975" style="fill:none;fill-rule:evenodd;stroke:#525252;stroke-width:16;stroke-linecap:butt;stroke-linejoin:miter;stroke-miterlimit:4;stroke-dasharray:none;stroke-opacity:1"/>
    <path d="M 685,120 L 685.00001,90 C 685.00001,70 665.00001,60 665.00001,40" id="path3977" style="fill:none;fill-rule:evenodd;stroke:#525252;stroke-width:16;stroke-linecap:butt;stroke-linejoin:miter;stroke-miterlimit:4;stroke-dasharray:none;stroke-opacity:1"/>
    <path d="M 1140,575 L 1170,575 C 1190,575 1200,595 1220,595" id="path3989" style="fill:none;fill-rule:evenodd;stroke:#525252;stroke-width:16;stroke-linecap:butt;stroke-linejoin:miter;stroke-miterlimit:4;stroke-dasharray:none;stroke-opacity:1"/>
    <path d="M 1140,685 L 1170,685.00001 C 1190,685.00001 1200,665.00001 1220,665.00001" id="path4003" style="fill:none;fill-rule:evenodd;stroke:#525252;stroke-width:16;stroke-linecap:butt;stroke-linejoin:miter;stroke-miterlimit:4;stroke-dasharray:none;stroke-opacity:1"/>
    <path d="M 685,1140 L 685,1170 C 685,1190 665,1200 665,1220" id="path4005" style="fill:none;fill-rule:evenodd;stroke:#ffffff;stroke-width:20;stroke-linecap:butt;stroke-linejoin:miter;stroke-miterlimit:4;stroke-dasharray:none;stroke-opacity:1"/>
    <path d="M 665,1250 L 665,630.00001" id="path4007" style="fill:none;fill-rule:evenodd;stroke:#ffffff;stroke-width:20;stroke-linecap:butt;stroke-linejoin:miter;stroke-miterlimit:4;stroke-dasharray:none;stroke-opacity:1"/>
    <path d="M 645,1250 L 645,630.00001" id="path4009" style="fill:none;fill-rule:evenodd;stroke:#ffffff;stroke-width:20;stroke-linecap:butt;stroke-linejoin:miter;stroke-miterlimit:4;stroke-dasharray:none;stroke-opacity:1"/>
    <path d="M 645,1250 L 645,630.00001" id="path4011" style="fill:none;fill-rule:evenodd;stroke:#525252;stroke-width:16;stroke-linecap:butt;stroke-linejoin:miter;stroke-miterlimit:4;stroke-dasharray:none;stroke-opacity:1"/>
    <path d="M 665,1250 L 665,630.00001" id="path4013" style="fill:none;fill-rule:evenodd;stroke:#525252;stroke-width:16;stroke-linecap:butt;stroke-linejoin:miter;stroke-miterlimit:4;stroke-dasharray:none;stroke-opacity:1"/>
    <path d="M 685,1140 L 685,1170 C 685,1190 665,1200 665,1220" id="path4015" style="fill:none;fill-rule:evenodd;stroke:#525252;stroke-width:16;stroke-linecap:butt;stroke-linejoin:miter;stroke-miterlimit:4;stroke-dasharray:none;stroke-opacity:1"/>
    <path d="M 594.99999,1250 L 594.99999,630" id="path4019" style="fill:none;fill-rule:evenodd;stroke:#ffffff;stroke-width:20;stroke-linecap:butt;stroke-linejoin:miter;stroke-miterlimit:4;stroke-dasharray:none;stroke-opacity:1"/>
    <path d="M 614.99999,1250 L 614.99999,630" id="path4021" style="fill:none;fill-rule:evenodd;stroke:#ffffff;stroke-width:20;stroke-linecap:butt;stroke-linejoin:miter;stroke-miterlimit:4;stroke-dasharray:none;stroke-opacity:1"/>
    <path d="M 575,1140 L 574.99999,1170 C 574.99999,1190 594.99999,1200 594.99999,1220" id="path4023" style="fill:none;fill-rule:evenodd;stroke:#ffffff;stroke-width:20;stroke-linecap:butt;stroke-linejoin:miter;stroke-miterlimit:4;stroke-dasharray:none;stroke-opacity:1"/>
    <path d="M 594.99999,1250 L 594.99999,630" id="path4025" style="fill:none;fill-rule:evenodd;stroke:#525252;stroke-width:16;stroke-linecap:butt;stroke-linejoin:miter;stroke-miterlimit:4;stroke-dasharray:none;stroke-opacity:1"/>
    <path d="M 614.99999,1250 L 614.99999,630" id="path4027" style="fill:none;fill-rule:evenodd;stroke:#525252;stroke-width:16;stroke-linecap:butt;stroke-linejoin:miter;stroke-miterlimit:4;stroke-dasharray:none;stroke-opacity:1"/>
    <path d="M 575,1140 L 574.99999,1170 C 574.99999,1190 594.99999,1200 594.99999,1220" id="path4029" style="fill:none;fill-rule:evenodd;stroke:#525252;stroke-width:16;stroke-linecap:butt;stroke-linejoin:miter;stroke-miterlimit:4;stroke-dasharray:none;stroke-opacity:1"/>
    <path d="M 120,685 L 89.99999,685 C 69.99999,685 59.99999,665 39.99999,665" id="path4041" style="fill:none;fill-rule:evenodd;stroke:#525252;stroke-width:16;stroke-linecap:butt;stroke-linejoin:miter;stroke-miterlimit:4;stroke-dasharray:none;stroke-opacity:1"/>
    <g id="g4135">
      <path d="M 120,575 C 170,575 179.87052,564.78205 205,550 C 290,500 480.00384,312.19294 550,205 C 565,180 575,170 575,120" id="path4043" style="fill:none;fill-rule:evenodd;stroke:#000000;stroke-width:1px;stroke-linecap:butt;stroke-linejoin:miter;stroke-opacity:1"/>
      <path d="M 205,550 C 290,500 520,570 605,655 C 690,740 760,970 710,1055" id="path4105" style="fill:none;fill-rule:evenodd;stroke:#000000;stroke-width:1px;stroke-linecap:butt;stroke-linejoin:miter;stroke-opacity:1"/>
    </g>
    <path d="M 120,575.00004 C 170,575.00004 179.8705,564.78209 205,550.00004 C 290,500.00004 480.0038,312.19298 550,205.00004 C 565,180.00004 575,170.00004 575,120.00004" id="path4149" style="fill:none;fill-rule:evenodd;stroke:#ffffff;stroke-width:20;stroke-linecap:butt;stroke-linejoin:miter;stroke-miterlimit:4;stroke-dasharray:none;stroke-opacity:1"/>
    <path d="M 1140,684.99996 C 1090,684.99996 1080.1295,695.21791 1055,709.99996 C 970,759.99996 779.9962,947.80702 710,1055 C 695,1080 685,1090 685,1140" id="path4238" style="fill:none;fill-rule:evenodd;stroke:#ffffff;stroke-width:20;stroke-linecap:butt;stroke-linejoin:miter;stroke-miterlimit:4;stroke-dasharray:none;stroke-opacity:1"/>
    <g id="g4196">
      <path d="M 424.21875,541.84375 L 412.3125,569.59375 C 485.34052,591.47602 557.15557,628.34307 594.40625,665.59375 C 631.65693,702.84443 668.52398,774.65948 690.40625,847.6875 L 718.15625,835.78125 C 695.26785,760.37953 658.53915,687.35165 615.59375,644.40625 C 572.64835,601.46085 499.62047,564.73215 424.21875,541.84375 z" id="path4159" style="fill:#d61201;fill-opacity:1;fill-rule:evenodd;stroke:none;stroke-width:30;stroke-linecap:butt;stroke-linejoin:miter;stroke-miterlimit:4;stroke-dasharray:none;stroke-opacity:1"/>
      <path d="M 205,550.00004 C 290,500.00004 520,570.00004 605,655.00004 C 690,740.00004 760,970.00004 710,1055" id="path4151" style="fill:none;fill-rule:evenodd;stroke:#ffffff;stroke-width:20;stroke-linecap:butt;stroke-linejoin:miter;stroke-miterlimit:4;stroke-dasharray:none;stroke-opacity:1"/>
      <path d="M 205,550 C 290,500 520,570 605,655 C 690,740 760,970 710,1055" id="path4143" style="fill:none;fill-rule:evenodd;stroke:#525252;stroke-width:16;stroke-linecap:butt;stroke-linejoin:miter;stroke-miterlimit:4;stroke-dasharray:none;stroke-opacity:1"/>
    </g>
    <g transform="matrix(-1,0,0,-1,1260,1260)" id="g4242">
      <path d="M 424.21875,541.84375 L 412.3125,569.59375 C 485.34052,591.47602 557.15557,628.34307 594.40625,665.59375 C 631.65693,702.84443 668.52398,774.65948 690.40625,847.6875 L 718.15625,835.78125 C 695.26785,760.37953 658.53915,687.35165 615.59375,644.40625 C 572.64835,601.46085 499.62047,564.73215 424.21875,541.84375 z" id="path4244" style="fill:#d61201;fill-opacity:1;fill-rule:evenodd;stroke:none;stroke-width:30;stroke-linecap:butt;stroke-linejoin:miter;stroke-miterlimit:4;stroke-dasharray:none;stroke-opacity:1"/>
      <path d="M 205,550.00004 C 290,500.00004 520,570.00004 605,655.00004 C 690,740.00004 760,970.00004 710,1055" id="path4246" style="fill:none;fill-rule:evenodd;stroke:#ffffff;stroke-width:20;stroke-linecap:butt;stroke-linejoin:miter;stroke-miterlimit:4;stroke-dasharray:none;stroke-opacity:1"/>
      <path d="M 205,550 C 290,500 520,570 605,655 C 690,740 760,970 710,1055" id="path4248" style="fill:none;fill-rule:evenodd;stroke:#525252;stroke-width:16;stroke-linecap:butt;stroke-linejoin:miter;stroke-miterlimit:4;stroke-dasharray:none;stroke-opacity:1"/>
    </g>
    <path d="M 120,575 C 170,575 179.8705,564.78205 205,550 C 290,500 480.0038,312.19294 550,205 C 565,180 575,170 575,120" id="path4141" style="fill:none;fill-rule:evenodd;stroke:#525252;stroke-width:16;stroke-linecap:butt;stroke-linejoin:miter;stroke-miterlimit:4;stroke-dasharray:none;stroke-opacity:1"/>
    <path d="M 1140,685 C 1090,685 1080.1295,695.21795 1055,710 C 970,760 779.9962,947.80706 710,1055 C 695,1080 685,1090 685,1140" id="path4240" style="fill:none;fill-rule:evenodd;stroke:#525252;stroke-width:16;stroke-linecap:butt;stroke-linejoin:miter;stroke-miterlimit:4;stroke-dasharray:none;stroke-opacity:1"/>
    <path d="M 684.99996,120 C 684.99996,170 695.21791,179.8705 709.99996,205 C 759.99996,290 947.80702,480.0038 1055,550 C 1080,565 1090,575 1140,575" id="path4222" style="fill:none;fill-rule:evenodd;stroke:#ffffff;stroke-width:20;stroke-linecap:butt;stroke-linejoin:miter;stroke-miterlimit:4;stroke-dasharray:none;stroke-opacity:1"/>
    <path d="M 575,1140 C 575,1090 564.78205,1080.1295 550,1055 C 500,970 312.19294,779.9962 205,710 C 180,695 170,685 120,685" id="path4254" style="fill:none;fill-rule:evenodd;stroke:#ffffff;stroke-width:20;stroke-linecap:butt;stroke-linejoin:miter;stroke-miterlimit:4;stroke-dasharray:none;stroke-opacity:1"/>
    <g transform="matrix(0,-1,1,0,-4e-5,1260)" id="g4258">
      <path d="M 424.21875,541.84375 L 412.3125,569.59375 C 485.34052,591.47602 557.15557,628.34307 594.40625,665.59375 C 631.65693,702.84443 668.52398,774.65948 690.40625,847.6875 L 718.15625,835.78125 C 695.26785,760.37953 658.53915,687.35165 615.59375,644.40625 C 572.64835,601.46085 499.62047,564.73215 424.21875,541.84375 z" id="path4260" style="fill:#d61201;fill-opacity:1;fill-rule:evenodd;stroke:none;stroke-width:30;stroke-linecap:butt;stroke-linejoin:miter;stroke-miterlimit:4;stroke-dasharray:none;stroke-opacity:1"/>
      <path d="M 205,550.00004 C 290,500.00004 520,570.00004 605,655.00004 C 690,740.00004 760,970.00004 710,1055" id="path4262" style="fill:none;fill-rule:evenodd;stroke:#ffffff;stroke-width:20;stroke-linecap:butt;stroke-linejoin:miter;stroke-miterlimit:4;stroke-dasharray:none;stroke-opacity:1"/>
      <path d="M 205,550 C 290,500 520,570 605,655 C 690,740 760,970 710,1055" id="path4264" style="fill:none;fill-rule:evenodd;stroke:#525252;stroke-width:16;stroke-linecap:butt;stroke-linejoin:miter;stroke-miterlimit:4;stroke-dasharray:none;stroke-opacity:1"/>
    </g>
    <g transform="matrix(0,1,-1,0,1260,0)" id="g4226">
      <path d="M 424.21875,541.84375 L 412.3125,569.59375 C 485.34052,591.47602 557.15557,628.34307 594.40625,665.59375 C 631.65693,702.84443 668.52398,774.65948 690.40625,847.6875 L 718.15625,835.78125 C 695.26785,760.37953 658.53915,687.35165 615.59375,644.40625 C 572.64835,601.46085 499.62047,564.73215 424.21875,541.84375 z" id="path4228" style="fill:#d61201;fill-opacity:1;fill-rule:evenodd;stroke:none;stroke-width:30;stroke-linecap:butt;stroke-linejoin:miter;stroke-miterlimit:4;stroke-dasharray:none;stroke-opacity:1"/>
      <path d="M 205,550.00004 C 290,500.00004 520,570.00004 605,655.00004 C 690,740.00004 760,970.00004 710,1055" id="path4230" style="fill:none;fill-rule:evenodd;stroke:#ffffff;stroke-width:20;stroke-linecap:butt;stroke-linejoin:miter;stroke-miterlimit:4;stroke-dasharray:none;stroke-opacity:1"/>
      <path d="M 205,550 C 290,500 520,570 605,655 C 690,740 760,970 710,1055" id="path4232" style="fill:none;fill-rule:evenodd;stroke:#525252;stroke-width:16;stroke-linecap:butt;stroke-linejoin:miter;stroke-miterlimit:4;stroke-dasharray:none;stroke-opacity:1"/>
    </g>
    <path d="M 574.99996,1140 C 574.99996,1090 564.78201,1080.1295 549.99996,1055 C 499.99996,970 312.1929,779.9962 204.99996,710 C 179.99996,695 169.99996,685 119.99996,685" id="path4256" style="fill:none;fill-rule:evenodd;stroke:#525252;stroke-width:16;stroke-linecap:butt;stroke-linejoin:miter;stroke-miterlimit:4;stroke-dasharray:none;stroke-opacity:1"/>
    <path d="M 685,120 C 685,170 695.21795,179.8705 710,205 C 760,290 947.80706,480.0038 1055,550 C 1080,565 1090,575 1140,575" id="path4224" style="fill:none;fill-rule:evenodd;stroke:#525252;stroke-width:16;stroke-linecap:butt;stroke-linejoin:miter;stroke-miterlimit:4;stroke-dasharray:none;stroke-opacity:1"/>
  </g>
</svg>
