<?xml version="1.0" encoding="UTF-8" standalone="no"?>
<!-- Created with Inkscape (http://www.inkscape.org/) -->

<svg
   xmlns:dc="http://purl.org/dc/elements/1.1/"
   xmlns:cc="http://creativecommons.org/ns#"
   xmlns:rdf="http://www.w3.org/1999/02/22-rdf-syntax-ns#"
   xmlns:svg="http://www.w3.org/2000/svg"
   xmlns="http://www.w3.org/2000/svg"
   xmlns:xlink="http://www.w3.org/1999/xlink"
   xmlns:sodipodi="http://sodipodi.sourceforge.net/DTD/sodipodi-0.dtd"
   xmlns:inkscape="http://www.inkscape.org/namespaces/inkscape"
   version="1.0"
   width="1260"
   height="1260"
   id="svg5595"
   inkscape:version="0.48.2 r9819"
   sodipodi:docname="AK-Turbine-5Bruecken (grn).svg">
  <metadata
     id="metadata91">
    <rdf:RDF>
      <cc:Work
         rdf:about="">
        <dc:format>image/svg+xml</dc:format>
        <dc:type
           rdf:resource="http://purl.org/dc/dcmitype/StillImage" />
        <dc:title />
      </cc:Work>
    </rdf:RDF>
  </metadata>
  <sodipodi:namedview
     pagecolor="#ffffff"
     bordercolor="#666666"
     borderopacity="1"
     objecttolerance="10"
     gridtolerance="10"
     guidetolerance="10"
     inkscape:pageopacity="0"
     inkscape:pageshadow="2"
     inkscape:window-width="1280"
     inkscape:window-height="966"
     id="namedview89"
     showgrid="false"
     inkscape:zoom="0.74920635"
     inkscape:cx="788.5735"
     inkscape:cy="520.65151"
     inkscape:window-x="0"
     inkscape:window-y="26"
     inkscape:window-maximized="1"
     inkscape:current-layer="svg5595"
     inkscape:snap-page="true" />
  <defs
     id="defs5597" />
  <g
     id="g3335">
    <g
       id="g3258">
      <rect
         style="fill:#7ed4a4;stroke:none"
         id="background"
         y="-1.6791057e-09"
         x="-2.726593e-08"
         height="1260"
         width="1260" />
      <g
         id="g2647"
         transform="translate(-11.682772,-19.712169)">
        <rect
           style="fill:#00599a;stroke:#ffffff;stroke-width:5"
           id="ab-schild"
           y="38.340561"
           x="31.109169"
           ry="15.6"
           rx="15.6"
           height="162.33073"
           width="191.23785" />
        <path
           inkscape:connector-curvature="0"
           style="fill:#ffffff;stroke:none"
           id="path2420"
           d="M 192.06002,162.74412 57.27697,78.545506 44.875624,86.051584 c 30.677014,18.928366 27.413502,46.015516 0.326352,65.922936 l 12.401346,8.48514 49.931738,-31.65606 -12.40135,-8.15878 -25.129044,15.9912 c 0,0 10.116888,-16.64392 0.652704,-34.26688 l 81.26145,51.23714 c 0,0 -24.14999,-6.52702 -50.25809,0 l 22.84459,-14.35946 -12.40135,-8.15878 -50.584434,31.65608 12.401346,7.83242 c 39.488498,-21.53918 84.198618,-13.3804 105.737798,0 l 12.40134,-7.83242 z" />
        <use
           xlink:href="#path2420"
           height="1052.3622"
           width="744.09448"
           y="0"
           x="0"
           id="use3192"
           transform="matrix(-0.9999988,0.00154479,-0.00154479,-0.9999988,254.08101,238.1691)" />
      </g>
      <path
         inkscape:connector-curvature="0"
         d="m 10,594.99999 620,0"
         id="path2741"
         style="fill:none;stroke:#ffffff;stroke-width:20;stroke-linecap:butt;stroke-linejoin:miter;stroke-miterlimit:4;stroke-opacity:1;stroke-dasharray:none" />
      <path
         inkscape:connector-curvature="0"
         d="m 10,614.99999 620,0"
         id="path2745"
         style="fill:none;stroke:#ffffff;stroke-width:20;stroke-linecap:butt;stroke-linejoin:miter;stroke-miterlimit:4;stroke-opacity:1;stroke-dasharray:none" />
      <path
         inkscape:connector-curvature="0"
         d="m 10,614.99999 620,0"
         id="path3939"
         style="fill:none;stroke:#525252;stroke-width:16;stroke-linecap:butt;stroke-linejoin:miter;stroke-miterlimit:4;stroke-opacity:1;stroke-dasharray:none" />
      <path
         inkscape:connector-curvature="0"
         d="m 1250,595 -619.99999,0"
         id="path4028"
         style="fill:none;stroke:#ffffff;stroke-width:20;stroke-linecap:butt;stroke-linejoin:miter;stroke-miterlimit:4;stroke-opacity:1;stroke-dasharray:none" />
      <path
         inkscape:connector-curvature="0"
         d="m 1250,615 -619.99999,0"
         id="path4024"
         style="fill:none;stroke:#ffffff;stroke-width:20;stroke-linecap:butt;stroke-linejoin:miter;stroke-miterlimit:4;stroke-opacity:1;stroke-dasharray:none" />
      <path
         inkscape:connector-curvature="0"
         d="m 1250,615 -619.99999,0"
         id="path4026"
         style="fill:none;stroke:#525252;stroke-width:16;stroke-linecap:butt;stroke-linejoin:miter;stroke-miterlimit:4;stroke-opacity:1;stroke-dasharray:none" />
      <path
         inkscape:connector-curvature="0"
         d="m 1250,645.00001 -620,0"
         id="path4070"
         style="fill:none;stroke:#ffffff;stroke-width:20;stroke-linecap:butt;stroke-linejoin:miter;stroke-miterlimit:4;stroke-opacity:1;stroke-dasharray:none" />
      <path
         inkscape:connector-curvature="0"
         d="m 10,645 620,0"
         id="path4128"
         style="fill:none;stroke:#ffffff;stroke-width:20;stroke-linecap:butt;stroke-linejoin:miter;stroke-miterlimit:4;stroke-opacity:1;stroke-dasharray:none" />
      <path
         inkscape:connector-curvature="0"
         d="m 1250,645.00001 -620,0"
         id="path4074"
         style="fill:none;stroke:#525252;stroke-width:16;stroke-linecap:butt;stroke-linejoin:miter;stroke-miterlimit:4;stroke-opacity:1;stroke-dasharray:none" />
      <path
         inkscape:connector-curvature="0"
         d="m 815,595 -185,0"
         id="path4036"
         style="fill:none;stroke:#525252;stroke-width:16;stroke-linecap:butt;stroke-linejoin:miter;stroke-miterlimit:4;stroke-opacity:1;stroke-dasharray:none" />
      <path
         inkscape:connector-curvature="0"
         d="m 10,665 620,0"
         id="path4132"
         style="fill:none;stroke:#ffffff;stroke-width:20;stroke-linecap:butt;stroke-linejoin:miter;stroke-miterlimit:4;stroke-opacity:1;stroke-dasharray:none" />
      <path
         inkscape:connector-curvature="0"
         d="m 1250,665.00001 -620,0"
         id="path4068"
         style="fill:none;stroke:#ffffff;stroke-width:20;stroke-linecap:butt;stroke-linejoin:miter;stroke-miterlimit:4;stroke-opacity:1;stroke-dasharray:none" />
      <path
         inkscape:connector-curvature="0"
         d="m 10,645 620,0"
         id="path4130"
         style="fill:none;stroke:#525252;stroke-width:16;stroke-linecap:butt;stroke-linejoin:miter;stroke-miterlimit:4;stroke-opacity:1;stroke-dasharray:none" />
      <path
         inkscape:connector-curvature="0"
         d="m 445.00001,665 185,0"
         id="path4140"
         style="fill:none;stroke:#525252;stroke-width:16;stroke-linecap:butt;stroke-linejoin:miter;stroke-miterlimit:4;stroke-opacity:1;stroke-dasharray:none" />
      <path
         inkscape:connector-curvature="0"
         d="m 595,110 c 0.6362,97.29475 -30,189.99999 -80,269.99999 -35,55 -84.99996,100 -134.99996,135 -85,55 -169.62795,76.23838 -270,80"
         id="path3957"
         style="fill:none;stroke:#ffffff;stroke-width:20;stroke-linecap:butt;stroke-linejoin:miter;stroke-miterlimit:4;stroke-opacity:1;stroke-dasharray:none;stroke-dashoffset:0" />
      <path
         inkscape:connector-curvature="0"
         d="m 10,594.99999 620,0"
         id="path3937"
         style="fill:none;stroke:#525252;stroke-width:16;stroke-linecap:butt;stroke-linejoin:miter;stroke-miterlimit:4;stroke-opacity:1;stroke-dasharray:none" />
      <path
         inkscape:connector-curvature="0"
         d="m 1150,595 c -97.2948,0.6362 -189.99999,-30 -269.99999,-80 -55,-35 -100,-84.99996 -135,-134.99996 -55,-85 -76.23838,-169.62795 -80,-270"
         id="path4032"
         style="fill:none;stroke:#ffffff;stroke-width:20;stroke-linecap:butt;stroke-linejoin:miter;stroke-miterlimit:4;stroke-opacity:1;stroke-dasharray:none;stroke-dashoffset:0" />
      <path
         inkscape:connector-curvature="0"
         d="m 1250,595 -435,0"
         id="path4030"
         style="fill:none;stroke:#525252;stroke-width:16;stroke-linecap:butt;stroke-linejoin:miter;stroke-miterlimit:4;stroke-opacity:1;stroke-dasharray:none" />
      <path
         inkscape:connector-curvature="0"
         d="m 665,1150 c -0.6362,-97.2948 30,-189.99999 80,-269.99999 35,-55 84.99996,-100 134.99996,-135 85,-55 169.62794,-76.23838 270.00004,-80"
         id="path4084"
         style="fill:none;stroke:#ffffff;stroke-width:20;stroke-linecap:butt;stroke-linejoin:miter;stroke-miterlimit:4;stroke-opacity:1;stroke-dasharray:none;stroke-dashoffset:0" />
      <path
         inkscape:connector-curvature="0"
         d="m 1250,665.00001 -620,0"
         id="path4072"
         style="fill:none;stroke:#525252;stroke-width:16;stroke-linecap:butt;stroke-linejoin:miter;stroke-miterlimit:4;stroke-opacity:1;stroke-dasharray:none" />
      <rect
         width="110"
         height="130"
         x="575"
         y="570"
         id="rect4256"
         style="fill:#d61201;fill-opacity:1;stroke:none" />
      <path
         inkscape:connector-curvature="0"
         d="m 595,10 0,619.99999"
         id="path3574"
         style="fill:none;stroke:#ffffff;stroke-width:20;stroke-linecap:butt;stroke-linejoin:miter;stroke-miterlimit:4;stroke-opacity:1;stroke-dasharray:none" />
      <path
         inkscape:connector-curvature="0"
         d="M 595,9.99999 595,445"
         id="path3943"
         style="fill:none;stroke:#525252;stroke-width:16;stroke-linecap:butt;stroke-linejoin:miter;stroke-miterlimit:4;stroke-opacity:1;stroke-dasharray:none" />
      <path
         inkscape:connector-curvature="0"
         d="m 595,445 0,185"
         id="path4301"
         style="fill:none;stroke:#525252;stroke-width:16;stroke-linecap:butt;stroke-linejoin:miter;stroke-miterlimit:4;stroke-opacity:1;stroke-dasharray:none" />
      <path
         inkscape:connector-curvature="0"
         d="m 615,9.99999 0,620"
         id="path3578"
         style="fill:none;stroke:#ffffff;stroke-width:20;stroke-linecap:butt;stroke-linejoin:miter;stroke-miterlimit:4;stroke-opacity:1;stroke-dasharray:none" />
      <path
         inkscape:connector-curvature="0"
         d="m 615,9.99999 0,620"
         id="path3945"
         style="fill:none;stroke:#525252;stroke-width:16;stroke-linecap:butt;stroke-linejoin:miter;stroke-miterlimit:4;stroke-opacity:1;stroke-dasharray:none" />
      <path
         sodipodi:nodetypes="cc"
         inkscape:connector-curvature="0"
         style="fill:none;stroke:#ffffff;stroke-width:20;stroke-linecap:butt;stroke-linejoin:miter;stroke-miterlimit:4;stroke-opacity:1;stroke-dasharray:none"
         id="path3238"
         d="M 386.49759,593.68798 C 463.91711,581.25879 492.86503,574.16289 532.67872,551.5194" />
      <path
         sodipodi:nodetypes="ccccc"
         inkscape:connector-curvature="0"
         style="fill:#d61201;fill-opacity:1;fill-rule:evenodd;stroke:none"
         id="path3387"
         d="m 554.98909,550.14137 c 31.07193,-28.61988 46.20746,-40.60237 81.14566,-55.70329 l -5.19094,-30.4719 c -38.01617,9.43808 -66.2765,42.15041 -95.77468,66.46333 z" />
      <path
         sodipodi:nodetypes="csc"
         inkscape:connector-curvature="0"
         style="fill:none;stroke:#ffffff;stroke-width:20;stroke-linecap:butt;stroke-linejoin:miter;stroke-miterlimit:4;stroke-opacity:1;stroke-dasharray:none"
         id="path3279"
         d="m 640.38189,476.60665 c -26.07991,7.819 -51.67818,23.43555 -82.35923,52.31234 -44.82191,42.18607 -55.77641,36.72633 -78.45092,49.31613" />
      <path
         sodipodi:nodetypes="cc"
         inkscape:connector-curvature="0"
         style="fill:none;stroke:#525252;stroke-width:16;stroke-linecap:butt;stroke-linejoin:miter;stroke-miterlimit:4;stroke-opacity:1;stroke-dasharray:none"
         id="path3285"
         d="m 648.87615,474.71903 c -99.34806,23.59524 -88.10832,113.2965 -277.84233,120.97653" />
      <path
         inkscape:connector-curvature="0"
         d="m 665.00001,10 0,620"
         id="path4016"
         style="fill:none;stroke:#ffffff;stroke-width:20;stroke-linecap:butt;stroke-linejoin:miter;stroke-miterlimit:4;stroke-opacity:1;stroke-dasharray:none" />
      <path
         inkscape:connector-curvature="0"
         d="m 665.00001,10 0,620"
         id="path4020"
         style="fill:none;stroke:#525252;stroke-width:16;stroke-linecap:butt;stroke-linejoin:miter;stroke-miterlimit:4;stroke-opacity:1;stroke-dasharray:none" />
      <path
         inkscape:connector-curvature="0"
         d="m 665,1250 0,-619.99999"
         id="path4080"
         style="fill:none;stroke:#ffffff;stroke-width:20;stroke-linecap:butt;stroke-linejoin:miter;stroke-miterlimit:4;stroke-opacity:1;stroke-dasharray:none" />
      <path
         inkscape:connector-curvature="0"
         d="m 645,1250 0,-619.99999"
         id="path4076"
         style="fill:none;stroke:#ffffff;stroke-width:20;stroke-linecap:butt;stroke-linejoin:miter;stroke-miterlimit:4;stroke-opacity:1;stroke-dasharray:none" />
      <path
         inkscape:connector-curvature="0"
         d="m 645,1250 0,-619.99999"
         id="path4078"
         style="fill:none;stroke:#525252;stroke-width:16;stroke-linecap:butt;stroke-linejoin:miter;stroke-miterlimit:4;stroke-opacity:1;stroke-dasharray:none" />
      <path
         inkscape:connector-curvature="0"
         d="m 665,1250 0,-435"
         id="path4082"
         style="fill:none;stroke:#525252;stroke-width:16;stroke-linecap:butt;stroke-linejoin:miter;stroke-miterlimit:4;stroke-opacity:1;stroke-dasharray:none" />
      <path
         inkscape:connector-curvature="0"
         d="m 665,815 0,-185"
         id="path4088"
         style="fill:none;stroke:#525252;stroke-width:16;stroke-linecap:butt;stroke-linejoin:miter;stroke-miterlimit:4;stroke-opacity:1;stroke-dasharray:none" />
      <path
         inkscape:connector-curvature="0"
         d="m 645.00001,10 0,620"
         id="path4018"
         style="fill:none;stroke:#ffffff;stroke-width:20;stroke-linecap:butt;stroke-linejoin:miter;stroke-miterlimit:4;stroke-opacity:1;stroke-dasharray:none" />
      <path
         inkscape:connector-curvature="0"
         d="m 645.00001,10 0,620"
         id="path4022"
         style="fill:none;stroke:#525252;stroke-width:16;stroke-linecap:butt;stroke-linejoin:miter;stroke-miterlimit:4;stroke-opacity:1;stroke-dasharray:none" />
      <path
         sodipodi:nodetypes="ccccc"
         inkscape:connector-curvature="0"
         style="fill:#d61201;fill-opacity:1;fill-rule:evenodd;stroke:none"
         id="path3387-7"
         d="M 551.89637,705.79399 C 524.2203,673.30635 511.294,659.58653 496.19308,624.64833 l -31.88761,2.35952 c 9.43808,38.01617 41.2066,68.63602 65.51952,98.1342 z" />
      <path
         inkscape:connector-curvature="0"
         d="M 110.00001,665 C 207.29476,664.3638 300,695 380,745 c 55,35 100,84.99996 135,134.99996 55,85 76.23838,169.62794 80,270.00004"
         id="path4136"
         style="fill:none;stroke:#ffffff;stroke-width:20;stroke-linecap:butt;stroke-linejoin:miter;stroke-miterlimit:4;stroke-opacity:1;stroke-dasharray:none;stroke-dashoffset:0" />
      <path
         inkscape:connector-curvature="0"
         d="m 10,665 435.00001,0"
         id="path4134"
         style="fill:none;stroke:#525252;stroke-width:16;stroke-linecap:butt;stroke-linejoin:miter;stroke-miterlimit:4;stroke-opacity:1;stroke-dasharray:none" />
      <path
         inkscape:connector-curvature="0"
         d="m 595,1250 0,-620"
         id="path4120"
         style="fill:none;stroke:#ffffff;stroke-width:20;stroke-linecap:butt;stroke-linejoin:miter;stroke-miterlimit:4;stroke-opacity:1;stroke-dasharray:none" />
      <path
         inkscape:connector-curvature="0"
         d="m 615,1250 0,-620"
         id="path4122"
         style="fill:none;stroke:#ffffff;stroke-width:20;stroke-linecap:butt;stroke-linejoin:miter;stroke-miterlimit:4;stroke-opacity:1;stroke-dasharray:none" />
      <path
         inkscape:connector-curvature="0"
         d="m 595,1250 0,-620"
         id="path4124"
         style="fill:none;stroke:#525252;stroke-width:16;stroke-linecap:butt;stroke-linejoin:miter;stroke-miterlimit:4;stroke-opacity:1;stroke-dasharray:none" />
      <path
         inkscape:connector-curvature="0"
         d="m 615,1250 0,-620"
         id="path4126"
         style="fill:none;stroke:#525252;stroke-width:16;stroke-linecap:butt;stroke-linejoin:miter;stroke-miterlimit:4;stroke-opacity:1;stroke-dasharray:none" />
      <path
         sodipodi:nodetypes="ccccc"
         inkscape:connector-curvature="0"
         style="fill:#d61201;fill-opacity:1;fill-rule:evenodd;stroke:none"
         id="path3387-4"
         d="m 705.79395,714.10999 c -31.07193,28.61988 -46.20746,40.60237 -81.14566,55.70329 l 5.19094,30.4719 c 38.01617,-9.43808 68.27862,-40.14829 97.7768,-64.46121 z" />
      <path
         sodipodi:nodetypes="ccccc"
         inkscape:connector-curvature="0"
         style="fill:#d61201;fill-opacity:1;fill-rule:evenodd;stroke:none"
         id="path3387-4-4"
         d="m 712.77528,558.21019 c 28.61988,31.07193 39.60131,46.87483 55.70329,81.14566 l 28.13609,-6.52569 c -9.97674,-38.87802 -41.6206,-70.16715 -62.45909,-94.10624 z" />
      <path
         sodipodi:nodetypes="csc"
         inkscape:connector-curvature="0"
         style="fill:none;stroke:#ffffff;stroke-width:20;stroke-linecap:butt;stroke-linejoin:miter;stroke-miterlimit:4;stroke-opacity:1;stroke-dasharray:none"
         id="path3279-09"
         d="m 783.97875,639.63241 c -7.819,-26.07991 -23.43555,-51.67818 -52.31234,-82.35923 -42.18607,-44.82191 -36.72633,-55.77641 -49.31613,-78.45092" />
      <path
         sodipodi:nodetypes="cc"
         inkscape:connector-curvature="0"
         style="fill:none;stroke:#525252;stroke-width:16;stroke-linecap:butt;stroke-linejoin:miter;stroke-miterlimit:4;stroke-opacity:1;stroke-dasharray:none"
         id="path3285-5"
         d="M 785.86637,648.12667 C 762.27113,548.77861 672.56987,560.01835 664.88984,370.28434" />
      <path
         sodipodi:nodetypes="csc"
         inkscape:connector-curvature="0"
         style="fill:none;stroke:#ffffff;stroke-width:20;stroke-linecap:butt;stroke-linejoin:miter;stroke-miterlimit:4;stroke-opacity:1;stroke-dasharray:none"
         id="path3279-0"
         d="m 476.02122,617.69811 c 7.819,26.07991 23.43555,51.67818 52.31234,82.35923 42.18607,44.82191 36.72633,55.77641 49.31613,78.45092" />
      <path
         sodipodi:nodetypes="ccsssccssscc"
         inkscape:connector-curvature="0"
         style="fill:#d61201;fill-opacity:1;fill-rule:evenodd;stroke:none"
         id="path3385-7"
         d="m 748.4958,452.31202 0.67547,-34.24369 c -33.67108,-12.73202 -28.16534,-12.91187 -65.74425,-18.86496 -41.79247,-6.62058 -92.83814,-0.9261 -127.33022,17.44946 -33.37948,17.78293 -64.77803,47.33286 -86.45991,89.58698 -18.56331,36.17659 -19.13115,73.2821 -4.50213,125.48707 l 32.00212,-1.88761 c -11.32569,-41.82309 -13.88669,-76.46739 0.096,-109.09375 14.69595,-34.29058 67.2014,-79.80008 98.24001,-88.0004 25.02647,-6.61192 33.06516,-7.90032 61.19407,-6.39077 41.75662,2.24089 55.36621,10.96009 91.8288,25.95767 z" />
      <path
         sodipodi:nodetypes="cc"
         inkscape:connector-curvature="0"
         style="fill:none;stroke:#525252;stroke-width:16;stroke-linecap:butt;stroke-linejoin:miter;stroke-miterlimit:4;stroke-opacity:1;stroke-dasharray:none"
         id="path3285-7"
         d="m 474.1336,609.20385 c 23.59524,99.34806 113.2965,88.10832 120.97653,277.84233" />
      <path
         sodipodi:nodetypes="ccsssccssscc"
         inkscape:connector-curvature="0"
         style="fill:#d61201;fill-opacity:1;fill-rule:evenodd;stroke:none"
         id="path3385-1"
         d="m 452.31198,517.51056 -37.58055,-2.01022 c -12.73202,33.67108 -13.13106,28.36082 -19.08415,65.93973 -6.62058,41.79247 -0.3969,92.89539 20.33814,128.80318 18.91297,32.75243 45.33074,60.77379 87.58486,82.45567 36.17659,18.56331 75.95159,20.79958 128.15656,6.17056 l -1.88761,-30 c -41.82309,11.32569 -76.46739,13.88669 -109.09375,-0.096 -34.29058,-14.69595 -81.02503,-63.71678 -86.94209,-95.27037 -5.94455,-31.7002 -10.65078,-24.27481 -7.80648,-63.08169 3.05669,-41.70484 11.31749,-56.44823 26.31507,-92.91082 z" />
      <path
         sodipodi:nodetypes="csc"
         inkscape:connector-curvature="0"
         style="fill:none;stroke:#ffffff;stroke-width:20;stroke-linecap:butt;stroke-linejoin:miter;stroke-miterlimit:4;stroke-opacity:1;stroke-dasharray:none"
         id="path3279-6"
         d="m 627.04131,784.64615 c 26.07991,-7.819 51.67818,-23.43555 82.35923,-52.31234 44.82191,-42.18607 55.77641,-36.72633 78.45092,-49.31613" />
      <path
         sodipodi:nodetypes="csc"
         inkscape:connector-curvature="0"
         style="fill:none;stroke:#ffffff;stroke-width:20;stroke-linecap:butt;stroke-linejoin:miter;stroke-miterlimit:4;stroke-opacity:1;stroke-dasharray:none"
         id="path3281-4"
         d="m 512.6685,383.6321 c -133.05508,166.83032 -144.50133,321.01605 -2.83142,395.94381 32.52235,17.20074 61.39107,19.76995 118.77523,4.61811" />
      <path
         sodipodi:nodetypes="cc"
         inkscape:connector-curvature="0"
         style="fill:none;stroke:#525252;stroke-width:16;stroke-linecap:butt;stroke-linejoin:miter;stroke-miterlimit:4;stroke-opacity:1;stroke-dasharray:none"
         id="path3285-6"
         d="M 620.04864,786.03324 C 719.3967,762.438 706.65537,673.23727 896.38938,665.55724" />
      <path
         sodipodi:nodetypes="ccsssccssscc"
         inkscape:connector-curvature="0"
         style="fill:#d61201;fill-opacity:1;fill-rule:evenodd;stroke:none"
         id="path3385-1-3"
         d="m 516.17585,811.69216 -0.67547,34.24369 c 33.67108,12.73202 30.16746,10.57606 67.74637,16.52915 41.79247,6.62058 90.16865,0.9261 124.66073,-17.44946 33.37948,-17.78293 62.10854,-45.33074 83.79042,-87.58486 18.56331,-36.17659 20.46589,-72.94841 5.83687,-125.15338 l -30,1.88761 c 11.32569,41.82309 10.21614,72.79683 -3.76655,105.42319 -14.69595,34.29058 -61.94648,78.02759 -88.93032,85.94104 -17.48502,5.12777 -26.61062,12.31921 -65.4175,9.47491 -41.70484,-3.05669 -56.78192,-8.31431 -93.24451,-23.31189 z" />
      <path
         sodipodi:nodetypes="ccsssccssscc"
         inkscape:connector-curvature="0"
         style="fill:#d61201;fill-opacity:1;fill-rule:evenodd;stroke:none"
         id="path3385"
         d="m 808.47106,746.7408 32.90894,4.34602 c 12.73202,-33.67108 15.24768,-30.83483 21.20077,-68.41374 6.62058,-41.79247 0.59241,-93.8392 -17.78315,-128.33128 -17.78293,-33.37948 -48.33392,-61.44117 -90.58804,-83.12305 -36.17659,-18.56331 -72.28104,-21.13326 -124.48601,-6.50424 l 5.55816,30.66737 c 30.14407,-14.66255 72.12947,-13.88669 104.75583,0.096 34.29058,14.69595 78.75185,64.2291 86.94209,95.27037 6.96635,26.4027 7.98129,31.61591 5.80436,63.08169 -2.88615,41.71699 -9.31537,56.44823 -24.31295,92.91082 z" />
      <path
         sodipodi:nodetypes="csc"
         inkscape:connector-curvature="0"
         style="fill:none;stroke:#525252;stroke-width:16;stroke-linecap:butt;stroke-linejoin:miter;stroke-miterlimit:4;stroke-opacity:1;stroke-dasharray:none"
         id="path3283-8"
         d="m 512.6685,383.6321 c -137.77413,178.15601 -140.69687,319.5647 -1.88762,396.88762 27.40642,15.26659 66.08857,18.45742 115.60521,3.78881" />
      <path
         inkscape:connector-curvature="0"
         d="m 594.86803,109.87288 c 0.63614,97.29475 -30,189.99999 -80,269.99999 -35,55 -85,100 -135,135 -85,55 -169.62795,76.23838 -270.00001,80"
         id="path3941"
         style="fill:none;stroke:#525252;stroke-width:16;stroke-linecap:butt;stroke-linejoin:miter;stroke-miterlimit:4;stroke-opacity:1;stroke-dasharray:none;stroke-dashoffset:0" />
      <path
         sodipodi:nodetypes="csc"
         inkscape:connector-curvature="0"
         style="fill:none;stroke:#ffffff;stroke-width:20;stroke-linecap:butt;stroke-linejoin:miter;stroke-miterlimit:4;stroke-opacity:1;stroke-dasharray:none"
         id="path3281"
         d="M 745,880 C 878.05508,713.16968 889.50133,558.98395 747.83142,484.05619 715.30907,466.85545 686.44035,464.28624 629.05619,479.43808" />
      <path
         sodipodi:nodetypes="csc"
         inkscape:connector-curvature="0"
         style="fill:none;stroke:#525252;stroke-width:16;stroke-linecap:butt;stroke-linejoin:miter;stroke-miterlimit:4;stroke-opacity:1;stroke-dasharray:none"
         id="path3283"
         d="M 745,880 C 882.77413,701.84399 885.69687,560.4353 746.88762,483.11238 719.4812,467.84579 665.44947,463.98759 628.11238,481.32569" />
      <path
         sodipodi:nodetypes="csc"
         inkscape:connector-curvature="0"
         style="fill:none;stroke:#ffffff;stroke-width:20;stroke-linecap:butt;stroke-linejoin:miter;stroke-miterlimit:4;stroke-opacity:1;stroke-dasharray:none"
         id="path3281-6"
         d="M 879.98111,515.4999 C 713.15079,382.44482 558.96506,370.99857 484.0373,512.66848 c -17.20074,32.52235 -17.43414,63.0595 -2.2823,120.44366" />
      <path
         sodipodi:nodetypes="csc"
         inkscape:connector-curvature="0"
         style="fill:none;stroke:#525252;stroke-width:16;stroke-linecap:butt;stroke-linejoin:miter;stroke-miterlimit:4;stroke-opacity:1;stroke-dasharray:none"
         id="path3283-6"
         d="M 888.65696,520.17151 C 710.50095,382.39738 561.51945,372.46726 484.09455,512.27753 c -14.80663,26.73712 -18.05525,72.26554 -1.453,122.1121" />
      <path
         inkscape:connector-curvature="0"
         d="m 1148.7924,594.86802 c -97.2948,0.63614 -190.00003,-30 -270.00003,-80 -55,-35 -100,-85 -135,-135 -55,-85 -76.23838,-169.62795 -80,-270"
         id="path4034"
         style="fill:none;stroke:#525252;stroke-width:16;stroke-linecap:butt;stroke-linejoin:miter;stroke-miterlimit:4;stroke-opacity:1;stroke-dasharray:none;stroke-dashoffset:0" />
      <path
         inkscape:connector-curvature="0"
         d="m 665,1150 c -0.63614,-97.2948 30,-190 80,-270 35,-55 85,-100 135,-135 85,-55 169.628,-76.23838 270,-80"
         id="path4086"
         style="fill:none;stroke:#525252;stroke-width:16;stroke-linecap:butt;stroke-linejoin:miter;stroke-miterlimit:4;stroke-opacity:1;stroke-dasharray:none;stroke-dashoffset:0" />
      <path
         sodipodi:nodetypes="csc"
         inkscape:connector-curvature="0"
         style="fill:none;stroke:#ffffff;stroke-width:20;stroke-linecap:butt;stroke-linejoin:miter;stroke-miterlimit:4;stroke-opacity:1;stroke-dasharray:none"
         id="path3281-3"
         d="m 380.6052,745.08655 c 166.83032,133.05508 321.01605,144.50133 395.94381,2.83142 17.20074,-32.52235 19.76995,-61.39107 4.61811,-118.77523" />
      <path
         sodipodi:nodetypes="csc"
         inkscape:connector-curvature="0"
         style="fill:none;stroke:#525252;stroke-width:16;stroke-linecap:butt;stroke-linejoin:miter;stroke-miterlimit:4;stroke-opacity:1;stroke-dasharray:none"
         id="path3283-65"
         d="m 380.6052,745.08655 c 178.15601,137.77413 319.07226,140.42141 396.88762,1.88762 17.26871,-30.74328 18.12373,-78.76865 2.78775,-118.44155" />
      <path
         inkscape:connector-curvature="0"
         d="m 109.87289,665.13198 c 97.29475,-0.63614 189.99999,30 269.99999,80 55,35 100,85 135,135 55,85.00005 76.23838,169.62802 80,270.00002"
         id="path4138"
         style="fill:none;stroke:#525252;stroke-width:16;stroke-linecap:butt;stroke-linejoin:miter;stroke-miterlimit:4;stroke-opacity:1;stroke-dasharray:none;stroke-dashoffset:0" />
    </g>
  </g>
</svg>
